<svg width="78" height="80" viewBox="0 0 78 80" fill="none" xmlns="http://www.w3.org/2000/svg">
<path d="M54.7113 0.370775C54.6452 0.709052 54.6783 0.793622 54.8874 0.96276C55.3938 1.35389 55.8012 1.11076 55.7461 0.444773C55.7131 0.0536398 55.7021 0.0430687 55.2507 0.0113552C54.7994 -0.0203584 54.7883 -0.00978718 54.7113 0.370775Z" fill="black"/>
<path d="M58.0471 0.508179C57.9591 0.867598 58.2013 1.06845 58.6857 1.02617C59.049 1.00502 59.137 0.952168 59.1591 0.751316C59.2031 0.508179 59.137 0.465894 58.5095 0.370754C58.1682 0.317898 58.1022 0.33904 58.0471 0.508179Z" fill="black"/>
<path d="M49.9996 0.582056C49.9666 0.677196 49.9336 0.846335 49.9336 0.952047C49.9336 1.13176 49.9996 1.16347 50.3519 1.13176C50.7263 1.10004 50.7593 1.06833 50.7923 0.751194C50.8253 0.423488 50.8143 0.412917 50.451 0.412917C50.1978 0.412917 50.0437 0.476344 49.9996 0.582056Z" fill="black"/>
<path d="M52.9277 0.73008C52.9277 0.930932 52.9498 1.0155 52.9828 0.909789C53.0048 0.814649 53.0048 0.64551 52.9828 0.539799C52.9498 0.444658 52.9277 0.529227 52.9277 0.73008Z" fill="black"/>
<path d="M22.9936 0.592626C22.6964 0.645482 22.4102 1.0049 22.4102 1.32204C22.4102 1.44889 22.5092 1.67089 22.6413 1.82945C23.0707 2.35801 23.9404 2.11487 24.1276 1.40661C24.2487 0.941475 23.6102 0.486914 22.9936 0.592626Z" fill="black"/>
<path d="M56.4721 1.74508C56.5051 1.84022 56.5381 1.99879 56.5381 2.11507C56.5381 2.3265 57.0005 2.84448 57.1877 2.84448C57.4078 2.84448 57.639 2.49563 57.639 2.14679C57.639 1.76622 57.65 1.77679 56.7693 1.63937C56.4721 1.58651 56.417 1.60766 56.4721 1.74508Z" fill="black"/>
<path d="M49.0632 1.96706C48.9311 2.22077 49.0852 2.47448 49.3274 2.38991C49.4375 2.34762 49.4925 2.23134 49.4705 2.08334C49.4265 1.78735 49.2063 1.72392 49.0632 1.96706Z" fill="black"/>
<path d="M16.9601 2.51681C15.4409 3.17223 15.4519 5.06447 16.9711 5.70931C17.984 6.14273 19.173 5.48731 19.3932 4.3562C19.5253 3.6585 19.0409 2.84452 18.2922 2.51681C17.7308 2.27368 17.5106 2.27368 16.9601 2.51681ZM18.006 3.69021C18.2922 3.96506 18.2812 4.14477 17.962 4.50419C17.7308 4.7579 17.6647 4.77904 17.3895 4.69447C16.9601 4.54648 16.806 4.11306 17.0592 3.75364C17.2794 3.41536 17.6977 3.39422 18.006 3.69021Z" fill="black"/>
<path d="M55.074 2.8233C54.4685 3.18272 54.6116 3.72185 55.3052 3.669C55.8116 3.62671 55.9547 3.39415 55.7676 2.96073C55.6134 2.59074 55.5033 2.56959 55.074 2.8233Z" fill="black"/>
<path d="M3.87076 3.27778L3.5625 3.51035L3.62855 5.79372C3.67259 7.05169 3.72764 15.4241 3.74966 24.399C3.78268 36.7567 3.82672 40.7526 3.9258 40.8689C4.01388 40.964 4.22305 41.0063 4.50929 40.9851L4.96066 40.9534L5.04874 40.1077C5.09277 39.6426 5.11479 31.2174 5.10378 21.3756C5.07076 1.85067 5.11479 3.26721 4.46525 3.10864C4.26709 3.06636 4.09094 3.10864 3.87076 3.27778Z" fill="black"/>
<path d="M33.3858 3.16164C31.283 3.39421 28.6519 3.99677 26.9234 4.66275C25.6023 5.17017 22.4317 6.72413 21.65 7.25269C21.2537 7.52754 20.5491 7.99267 20.0977 8.29923C18.8647 9.12378 17.3234 10.4452 15.9363 11.8723C14.373 13.4791 13.3161 14.8111 12.3143 16.4285C10.5308 19.3461 9.85921 20.9424 8.76931 24.8854C8.10876 27.2639 8.05371 27.7713 8.05371 30.4881C8.06472 32.7186 8.09775 33.0675 8.406 34.7694C8.89041 37.3805 10.1124 40.8479 11.2684 42.9092C12.3913 44.9072 15.0225 48.3111 16.828 50.0871C19.6023 52.8039 23.2574 54.9709 27.2537 56.2606C29.6097 57.0218 32.1528 57.5397 34.4096 57.7195C36.5234 57.8886 39.8041 57.7829 41.0702 57.4975C41.6206 57.3812 42.5784 57.1803 43.195 57.064C45.3968 56.6518 50.0867 54.7278 50.8023 53.9561C51.2096 53.5121 51.2206 53.417 50.8794 53.0153C50.6482 52.751 50.5711 52.7193 50.2078 52.7827C49.9876 52.825 49.1839 53.1421 48.4243 53.5016C45.5399 54.823 41.6206 55.8378 38.5711 56.0386C34.6078 56.3029 29.7197 55.5312 26.3289 54.0935C22.1124 52.3176 19.7454 50.7425 17.3124 48.0891C13.6464 44.0932 11.7968 40.9536 10.6188 36.704C9.22068 31.6827 9.55096 26.1011 11.5106 21.6083C13.25 17.6124 14.9124 15.1916 17.8298 12.4114C21.3638 9.03922 25.6574 6.61842 29.8959 5.59301C32.0647 5.07503 33.683 4.91646 36.9418 4.91646C39.9583 4.90589 40.4206 4.94817 42.9417 5.44502C45.8702 6.01586 49.7234 7.56982 51.5839 8.91236C52.0353 9.24007 52.5197 9.53606 52.6738 9.57835C52.9491 9.64177 54.9638 9.36692 55.0849 9.24007C55.217 9.11321 54.05 8.16181 53.2023 7.69668C52.7619 7.45354 52.0683 7.05183 51.65 6.79813C50.5161 6.111 47.9179 4.90589 46.795 4.54647C45.3307 4.08134 43.5472 3.63735 42.1161 3.37307C41.0262 3.17222 40.3876 3.12993 37.5473 3.10879C35.7307 3.08765 33.8592 3.10879 33.3858 3.16164Z" fill="#2B0458" fill-opacity="0.78"/>
<path d="M60.1716 3.5423C58.6743 4.16599 58.1899 6.16395 59.3128 7.13649C59.8963 7.65448 60.733 7.87647 61.4046 7.69676C61.9771 7.54877 62.7807 6.8405 62.9239 6.34366C63.1991 5.40282 62.9679 4.58884 62.2413 3.944C61.6248 3.38373 60.8872 3.2463 60.1716 3.5423ZM61.2725 4.58884C62.0321 4.9694 62.1642 5.70939 61.5587 6.2908C60.9422 6.88278 60.1275 6.68193 59.8413 5.85738C59.6982 5.43453 59.8743 5.01169 60.3477 4.65227C60.7 4.38799 60.8431 4.37742 61.2725 4.58884Z" fill="black"/>
<path d="M9.91438 4.56761C8.94558 4.9376 8.47218 5.36044 8.05383 6.22728C6.75475 8.91236 10.3658 11.46 12.6116 9.44092C13.3492 8.77493 13.6355 8.09838 13.5804 7.11526C13.5474 6.4387 13.5034 6.29071 13.1401 5.79386C12.6447 5.10674 12.1713 4.7896 11.3786 4.57818C10.685 4.40904 10.3658 4.39847 9.91438 4.56761ZM11.7529 6.33299C12.1162 6.71355 12.1713 6.82984 12.1713 7.26325C12.1713 8.1618 11.5768 8.77493 10.707 8.7855C9.8153 8.80665 9.19879 8.1618 9.19879 7.22097C9.19879 6.78755 9.25383 6.68184 9.62814 6.32242C10.0245 5.94186 10.1015 5.91014 10.685 5.91014C11.2905 5.91014 11.3456 5.93129 11.7529 6.33299Z" fill="black"/>
<path d="M53.7644 4.82134C53.4892 4.88476 53.5222 5.03276 53.8525 5.23361C54.1717 5.44504 54.3589 5.32875 54.2708 4.9799C54.2048 4.74734 54.1277 4.7262 53.7644 4.82134Z" fill="black"/>
<path d="M56.3623 4.89519C56.2192 5.24404 56.4063 5.39203 56.8907 5.36032C57.3091 5.32861 57.3641 5.29689 57.3641 5.06433C57.3641 4.83176 57.3091 4.80005 56.8907 4.76833C56.5494 4.74719 56.4063 4.7789 56.3623 4.89519Z" fill="black"/>
<path d="M33.6946 6.92498C32.0432 7.06241 30.0836 7.50639 28.5203 8.10895C26.6707 8.80665 26.0982 9.07093 24.8652 9.78977C22.0579 11.4177 19.845 13.2043 17.5221 15.7413C15.5294 17.9084 14.3625 19.7161 13.2505 22.3483C11.9845 25.3188 11.5771 27.2639 11.5771 30.4353C11.5771 32.5284 11.5882 32.6658 11.9845 34.4734C12.8212 38.3531 14.3074 41.5033 16.7845 44.6535C17.8744 46.0595 20.0432 48.2054 21.3643 49.1991C23.5992 50.8799 26.4615 52.307 29.2909 53.1421C33.1111 54.2733 37.856 54.4741 41.8964 53.6813C44.3074 53.2056 46.7845 52.3176 48.2817 51.3662L49.1294 50.8271L49.7239 51.049C50.0542 51.1759 50.8358 51.5776 51.4744 51.9476C52.1129 52.307 53.3239 52.9413 54.1716 53.343C55.0193 53.7447 55.9881 54.2733 56.3294 54.5164C56.9899 55.0027 57.8597 55.3409 58.1569 55.2352C58.4211 55.1295 58.267 53.4804 57.8487 51.9265C56.8909 48.364 56.2083 45.6895 56.2083 45.4675C56.2083 45.33 56.4835 44.9178 56.8688 44.4738C58.6413 42.4547 59.9844 40.055 61.0413 37.0211C61.7789 34.9069 62.1532 32.9618 62.2303 30.8053C62.3184 28.3739 61.9661 25.2448 61.5698 24.8537C61.4927 24.7797 61.1074 24.674 60.711 24.6211C59.2248 24.3991 58.1569 23.8706 57.4523 23.0143C57.1551 22.6655 57.089 22.4857 57.089 22.0735C57.089 21.7986 57.1331 21.4498 57.1991 21.2912C57.3863 20.8155 58.278 20.0015 58.8835 19.7584C59.434 19.5258 59.6211 19.5152 63.8927 19.4518L68.3404 19.3884L68.5496 19.1347C68.8358 18.7964 68.8138 18.3207 68.4835 18.0141C68.2633 17.7921 68.1092 17.7499 67.5257 17.7393C67.1404 17.7287 65.3239 17.697 63.4743 17.6653C56.4285 17.5279 56.5166 17.5279 56.1973 18.2256C55.9221 18.8281 56.0321 19.0501 56.7257 19.2827C57.7276 19.621 57.7276 19.6421 56.9129 19.6421C56.2744 19.6527 56.0321 19.5998 55.5367 19.3567C55.2065 19.1981 54.8762 18.955 54.7991 18.807C54.4799 18.215 54.9533 16.9676 55.6909 16.439C55.9771 16.2382 56.1973 16.217 59.3239 16.1536C61.1514 16.1113 65.0487 16.069 67.9881 16.069C72.8652 16.0585 73.3496 16.0373 73.5697 15.8682C73.922 15.6039 73.9881 15.1282 73.7239 14.7159C73.5257 14.4199 73.4376 14.3777 72.8101 14.3142C72.4248 14.2719 68.5165 14.2614 64.1239 14.2825C56.6487 14.3248 56.1312 14.3459 55.845 14.5257C55.6799 14.6314 55.4927 14.8005 55.4266 14.9062C55.3716 15.0225 55.2285 15.1071 55.1074 15.1071C54.8211 15.1071 54.7331 14.6208 54.9312 14.0922C55.0633 13.7222 55.0633 13.6165 54.9312 13.31C54.7991 13.0245 54.7991 12.94 54.9092 12.866C54.9863 12.8237 55.9441 12.7708 57.034 12.7603C58.1239 12.7497 59.1147 12.7286 59.2358 12.718C59.3569 12.7074 62.0982 12.6968 65.3239 12.6863C71.0046 12.6757 71.1918 12.6651 71.4009 12.4643C71.6652 12.2106 71.7973 11.7454 71.6542 11.5234C71.5991 11.4283 71.3789 11.2697 71.1698 11.1746C70.8285 11.016 70.0028 10.9949 62.0432 10.9632C53.8854 10.9315 53.2689 10.942 52.9166 11.1112C52.7074 11.2169 52.4652 11.3014 52.3661 11.3014C52.1239 11.3014 51.1221 10.8363 50.5606 10.4769C48.7441 9.27178 45.2322 7.92924 42.1826 7.27383C39.8157 6.75584 36.9863 6.63956 33.6946 6.92498ZM29.2799 10.2972C29.5551 10.498 29.412 10.6566 28.6193 11.1006C28.2891 11.2803 27.5735 11.7349 27.012 12.1154C26.4615 12.5066 25.768 12.8977 25.4927 13.0034C25.2065 13.1091 24.6891 13.3628 24.3258 13.5637C23.9735 13.7751 23.5661 13.9442 23.434 13.9442C23.2248 13.9442 23.1808 13.8914 23.1808 13.5954C23.1808 13.31 23.2909 13.162 23.8744 12.6757C25.0083 11.7031 25.4267 11.4177 25.9992 11.2063C26.2964 11.09 26.8138 10.8997 27.1441 10.7729C27.4744 10.6355 27.9698 10.4452 28.245 10.3395C28.8395 10.1069 29.0047 10.0963 29.2799 10.2972ZM40.234 12.2951C42.8101 12.8343 45.023 13.7011 46.9606 14.9485C48.3588 15.8365 49.4597 16.7667 50.6377 18.0247C53.3679 20.9529 54.8982 24.3674 55.2175 28.2893C55.5147 31.8201 54.5459 35.8371 52.7844 38.3954L52.3661 39.0085L52.7404 40.2665C52.9386 40.9641 53.2688 42.1798 53.456 42.9832C53.9514 45.0869 54.8211 48.364 55.2725 49.8334C55.4817 50.5205 55.6578 51.1336 55.6578 51.1759C55.6578 51.3662 54.8762 51.0385 50.9239 49.1674C48.656 48.0997 45.9257 46.8417 44.8689 46.3766C43.812 45.9009 42.8542 45.4569 42.7331 45.3829C42.5679 45.2772 42.4358 45.2772 42.0175 45.404C39.1551 46.2709 33.9918 46.218 31.1514 45.2878C27.9037 44.2306 24.8652 42.275 22.7514 39.8859C21.7386 38.7548 21.2982 38.1311 20.6707 36.9365C18.557 32.8983 18.1056 28.173 19.4597 24.1983C20.8799 20.0121 23.8414 16.4602 27.6615 14.3882C29.8634 13.1831 31.6689 12.5911 34.3001 12.2C35.6652 11.9991 39.078 12.0626 40.234 12.2951ZM22.7955 14.2614C22.4432 14.6208 22.3001 14.6631 22.3001 14.3988C22.3001 14.3037 22.3331 14.2508 22.3661 14.2825C22.3992 14.3248 22.5203 14.2614 22.6414 14.1451C22.9937 13.8068 23.1368 13.9231 22.7955 14.2614ZM15.1441 28.7439C15.2652 28.8602 15.3643 29.0504 15.3643 29.1667C15.3643 29.4627 14.979 29.801 14.6597 29.801C14.5056 29.801 14.3074 29.6953 14.2193 29.5684C13.7239 28.8919 14.5386 28.1625 15.1441 28.7439ZM15.8047 32.5178C16.1239 32.8561 16.157 32.9512 16.1019 33.3846C16.0028 34.2515 15.1221 34.7166 14.4175 34.2832C13.9001 33.9449 13.6799 33.2261 13.9441 32.7292C14.2083 32.2429 14.3955 32.1267 14.9349 32.1267C15.3973 32.1267 15.4964 32.1689 15.8047 32.5178ZM58.8945 34.4946C59.6321 34.7906 60.0175 35.6257 59.6762 36.2388C59.3019 36.9365 58.3661 37.1902 57.6725 36.778C56.6707 36.1966 56.7147 35.076 57.7496 34.5474C58.201 34.3043 58.4101 34.3043 58.8945 34.4946ZM16.3882 36.26C16.8615 36.5031 16.9386 36.9577 16.5753 37.3065C16.245 37.6237 15.9698 37.5708 15.7606 37.1585C15.5294 36.6934 15.5404 36.6088 15.8047 36.3551C16.0579 36.112 16.0799 36.1014 16.3882 36.26ZM18.1937 41.9367C18.3148 42.0318 18.6891 42.4547 19.0193 42.867C19.3386 43.2898 19.823 43.7972 20.0982 44.0192C20.3735 44.2306 20.9239 44.6958 21.3203 45.0552C21.7276 45.4146 22.234 45.8586 22.4652 46.0489C22.9606 46.4612 22.9716 46.8523 22.4872 46.9051C22.245 46.9369 21.9698 46.7677 21.1221 46.1229C20.5386 45.6683 19.9111 45.0869 19.7239 44.8226C19.5368 44.5583 18.9533 43.9029 18.4359 43.3849C17.5111 42.4653 17.2579 42.0847 17.401 41.8521C17.5111 41.683 17.9294 41.7358 18.1937 41.9367ZM26.8138 47.772C27.5074 48.0574 28.4982 48.364 29.0157 48.4591C30.3037 48.6917 30.2267 48.6705 30.8102 49.1991C31.4047 49.7382 31.3056 49.7065 33.3643 50.0025C34.6524 50.1928 35.5881 50.2351 38.9569 50.2774C43.4267 50.3408 43.3276 50.3196 42.8982 50.9856C42.4909 51.6093 42.3257 51.6305 37.7129 51.5987C33.8157 51.567 32.5826 51.5036 31.6358 51.2605C31.3166 51.1759 31.2175 51.0913 31.1624 50.8271C31.0744 50.4465 30.9313 50.3831 29.6212 50.1505C28.3661 49.9285 24.7992 48.5965 24.557 48.2688C24.3368 47.9728 24.3478 47.5183 24.568 47.2963C24.8102 47.0637 25.2946 47.1694 26.8138 47.772Z" fill="#8417FF" fill-opacity="0.7"/>
<path d="M34.4432 14.7476C33.2212 14.9379 31.2615 15.5616 30.1166 16.1113C25.812 18.1833 22.6413 22.0946 21.6285 26.5768C20.9129 29.7587 21.5735 33.596 23.3019 36.3234C27.1111 42.3278 34.4542 44.9177 41.6762 42.8141L42.7221 42.5075L43.2725 42.7189C43.5808 42.8352 44.5936 43.3109 45.5294 43.7761C47.2248 44.6217 51.3422 46.5034 51.4854 46.5034C51.5184 46.5034 51.1991 45.1397 50.7588 43.4589C50.3184 41.7887 49.856 39.9599 49.7129 39.3996L49.4597 38.3636L49.9771 37.6236C52.1459 34.5263 52.9716 30.9955 52.4101 27.3062C51.9257 24.23 50.8248 22.0629 48.2927 19.2721C46.0358 16.7879 43.1514 15.3185 39.3643 14.7265C38.1973 14.5468 35.6322 14.5573 34.4432 14.7476ZM39.7386 16.3122C40.0909 16.3967 40.4101 16.5024 40.4542 16.5553C40.4872 16.6187 40.8835 16.6927 41.3349 16.7244C42.1826 16.7879 43.0523 17.1156 43.2615 17.4538C43.3276 17.5596 43.3276 17.8027 43.2615 18.141C43.1734 18.6167 43.1404 18.6484 42.7991 18.6801C42.3698 18.7224 41.7312 18.5004 40.9606 18.0353L40.4101 17.7076H37.823C35.7202 17.7076 35.0927 17.7393 34.4762 17.8873C33.6945 18.0775 31.9111 18.733 31.0193 19.1664C30.7331 19.3038 30.1056 19.5469 29.6212 19.7055C28.7734 19.9909 28.7074 20.0332 27.7716 21.0163C26.9349 21.8937 26.7037 22.232 26.0101 23.564C25.5808 24.4097 25.0854 25.4668 24.9092 25.9002C24.4138 27.2322 23.9184 27.6127 23.5661 26.9468C23.2248 26.3019 23.434 25.3294 24.2927 23.5957C25.0303 22.1052 26.8358 20.1178 27.9147 19.5998C28.1239 19.5047 28.6523 19.1029 29.0707 18.7012C30.4799 17.401 32.1202 16.6821 34.4982 16.3227C35.7973 16.1324 38.9019 16.1219 39.7386 16.3122ZM37.5808 27.5282C38.6267 27.9616 39.1551 29.0187 38.7918 30.023C38.2633 31.5241 36.4248 31.8623 35.3679 30.6467C34.5202 29.6847 34.8945 28.099 36.0945 27.5705C36.656 27.3273 37.0413 27.3167 37.5808 27.5282ZM44.5716 27.5176C45.3753 27.803 45.8597 28.4901 45.8597 29.3464C45.8487 30.7524 44.5496 31.7038 43.2725 31.2386C42.0505 30.7841 41.5441 29.283 42.2817 28.321C42.9202 27.4859 43.6909 27.2216 44.5716 27.5176ZM30.9863 27.6339C31.7019 27.9827 32.1863 28.9236 32.0432 29.6847C31.867 30.6255 31.0193 31.3866 30.1606 31.3866C29.0377 31.3761 27.9918 30.1604 28.19 29.0716C28.3991 27.8876 29.9184 27.1053 30.9863 27.6339Z" fill="#8417FF" fill-opacity="0.85"/>
<path d="M14.5715 32.8771C14.2963 33.0251 14.3183 33.5325 14.6045 33.7757C14.8027 33.9554 14.8577 33.9554 15.1109 33.8179C15.5293 33.5854 15.6284 33.226 15.3642 32.9723C15.122 32.7397 14.8577 32.708 14.5715 32.8771Z" fill="black"/>
<path d="M57.9254 35.3507C57.7162 35.5621 57.7052 35.6255 57.8923 35.8686C58.1896 36.2704 58.9382 35.8475 58.674 35.4247C58.5088 35.1815 58.1455 35.1392 57.9254 35.3507Z" fill="black"/>
<path d="M65.4555 7.34765L65.1143 7.63307L65.3344 7.84449C65.5546 8.05592 65.5766 8.05592 65.951 7.88678C66.3253 7.71764 66.4023 7.56964 66.2702 7.24194C66.1711 6.98823 65.8519 7.04109 65.4555 7.34765Z" fill="black"/>
<path d="M74.2631 11.0582C73.9328 11.1745 73.6025 11.555 73.6025 11.8299C73.6025 12.4113 74.4392 12.7813 75.2759 12.5593C75.6282 12.4747 75.7493 12.369 75.9035 12.0413C76.0576 11.7242 76.1126 11.6713 76.2007 11.7982C76.2778 11.9145 76.3658 11.925 76.608 11.8405C77.0044 11.6925 76.9824 11.555 76.542 11.4705C76.3438 11.4388 75.9805 11.3119 75.7493 11.1956C75.342 10.9948 74.6264 10.9313 74.2631 11.0582Z" fill="black"/>
<path d="M6.46872 13.0774C6.28157 13.3839 6.27056 13.7539 6.30359 20.012C6.31459 24.2934 6.36964 26.7036 6.4467 26.8304C6.54579 27.0207 6.57881 27.0313 6.98615 26.8727C7.4045 26.7142 7.42652 26.6824 7.49257 26.1645C7.5256 25.8685 7.56964 22.8451 7.58065 19.4518C7.62468 12.6862 7.6467 12.9822 6.97514 12.8236C6.72193 12.7708 6.64487 12.8131 6.46872 13.0774Z" fill="black"/>
<path d="M0.975189 16.6397C0.490786 16.9674 0.56785 17.8131 1.11831 18.0562C1.43757 18.1937 1.72381 18.088 1.97702 17.7285C2.21922 17.4008 2.19721 17.0943 1.92198 16.756C1.66877 16.4494 1.32748 16.4071 0.975189 16.6397Z" fill="black"/>
<path d="M76.8173 17.9824C76.8393 18.1726 76.9384 18.2361 77.2136 18.2572C77.654 18.2995 77.676 18.1198 77.2357 17.9084C76.8173 17.6969 76.7733 17.7075 76.8173 17.9824Z" fill="black"/>
<path d="M1.00802 19.8112C0.61169 20.2023 0.908937 21.0269 1.4594 21.0269C1.71261 21.0269 2.15297 20.6146 2.15297 20.3714C2.15297 19.8957 1.33829 19.494 1.00802 19.8112Z" fill="black"/>
<path d="M64.0686 21.0163C59.0815 21.0797 59.1695 21.0692 58.9494 21.64C58.8393 21.9149 59.0264 22.3166 59.3897 22.5808C59.5218 22.676 61.0081 22.7077 65.5218 22.7183C71.4227 22.7183 71.4888 22.7183 71.775 22.4963C72.0283 22.306 72.0723 22.2003 72.0393 21.8409C71.9732 20.9529 71.6319 20.9212 64.0686 21.0163Z" fill="black"/>
<path d="M74.4285 21.0692C74.0542 21.2277 73.7129 21.6506 73.7129 21.9571C73.7129 22.0734 73.845 22.2954 74.0101 22.454C74.3074 22.7288 74.3404 22.7394 75.1881 22.6654C76.256 22.5808 76.5422 22.4751 76.7074 22.1369C77.0817 21.344 75.5294 20.604 74.4285 21.0692Z" fill="black"/>
<path d="M1.08559 22.2531C0.975501 22.5385 1.19568 22.9825 1.47091 23.0142C1.94431 23.0777 2.24155 22.528 1.91128 22.2108C1.71311 22.0206 1.16266 22.0523 1.08559 22.2531Z" fill="black"/>
<path d="M0.545863 24.6105C-0.444962 25.192 0.00641364 26.7354 1.15137 26.7354C1.62476 26.7354 1.97705 26.5239 2.20825 26.1011C2.53852 25.4774 2.35137 24.8854 1.71283 24.5683C1.28348 24.3568 0.953202 24.3674 0.545863 24.6105Z" fill="black"/>
<path d="M63.7053 24.5047C63.5181 24.621 63.5842 25.5936 63.8704 26.9467C64.1236 28.1095 64.1566 32.2005 63.9254 33.3951C63.2649 36.947 62.197 39.8646 60.7218 42.2326C60.1383 43.184 58.6521 45.2559 58.0135 46.0276C57.8264 46.2602 57.5952 46.5879 57.5071 46.7676C57.3089 47.1376 57.1768 48.3744 57.3199 48.459C57.419 48.5224 58.3878 47.9516 58.8612 47.5393C59.0264 47.4125 59.5328 46.8416 59.9842 46.2708C64.0576 41.2918 66.1053 35.3613 65.852 29.3252C65.7309 26.4181 65.3787 24.8642 64.7952 24.5682C64.4429 24.3885 63.9365 24.3673 63.7053 24.5047Z" fill="black"/>
<path d="M68.2307 26.0164C68.0766 26.1644 68.0546 27.0418 68.2087 27.4118C68.3408 27.75 68.6711 27.7712 68.9793 27.4752C69.2546 27.2109 69.2876 26.3018 69.0234 26.0586C68.8252 25.8578 68.4179 25.8366 68.2307 26.0164Z" fill="black"/>
<path d="M74.3295 26.8516C73.9662 27.2533 73.9662 27.5282 74.3185 27.7502C74.6048 27.9299 74.946 27.8982 75.2983 27.655C75.5515 27.4753 75.4745 27.0525 75.1442 26.7353C74.836 26.4394 74.6598 26.4711 74.3295 26.8516Z" fill="black"/>
<path d="M1.19543 28.5957C0.700021 28.9657 0.689012 29.4732 1.16241 29.9171C1.49268 30.2343 1.49268 30.2343 1.82296 30.0546C2.15323 29.8643 2.48351 29.3463 2.48351 29.0186C2.48351 28.7755 1.98809 28.3209 1.74589 28.3209C1.6358 28.3209 1.38259 28.4477 1.19543 28.5957Z" fill="black"/>
<path d="M70.6853 29.3571C69.5954 29.7165 69.4083 31.0062 70.3771 31.4819C70.5092 31.5453 70.8174 31.5981 71.0706 31.5981C71.456 31.5981 71.5991 31.5347 71.9183 31.2282C72.2816 30.8793 72.3037 30.8159 72.2486 30.3719C72.2156 30.0442 72.1055 29.801 71.9404 29.6425C71.6541 29.3782 71.0486 29.2408 70.6853 29.3571Z" fill="black"/>
<path d="M0.865545 32.5493C0.557288 32.6656 0.524261 33.1202 0.788481 33.4796C0.997655 33.765 1.20683 33.7756 1.49307 33.5007C1.82334 33.1836 1.79031 32.6762 1.42701 32.5493C1.27288 32.4859 1.14077 32.4436 1.12976 32.4542C1.11876 32.4542 0.997655 32.4965 0.865545 32.5493Z" fill="black"/>
<path d="M67.7682 33.4057C67.614 33.6806 67.6801 33.8603 68.0214 34.0823C68.3626 34.2937 68.5938 34.2091 68.759 33.8074C68.9351 33.4057 68.759 33.1837 68.2526 33.1837C67.9993 33.1837 67.8452 33.2471 67.7682 33.4057Z" fill="black"/>
<path d="M71.3568 33.67C71.2247 33.7969 71.1807 34.0506 71.1807 34.7272C71.1807 35.5729 71.1917 35.6151 71.4449 35.6786C71.599 35.7103 71.7752 35.7103 71.8302 35.668C72.0174 35.5623 71.9733 34.6003 71.7862 34.41C71.643 34.2726 71.643 34.2515 71.8302 34.188C72.0284 34.1352 72.2596 33.744 72.1495 33.67C71.9733 33.522 71.4999 33.522 71.3568 33.67Z" fill="black"/>
<path d="M1.52568 34.2091C1.37155 34.2619 1.33852 34.6425 1.44862 34.9173C1.53669 35.1288 2.0321 35.1393 2.10917 34.9279C2.2743 34.5156 1.92201 34.0822 1.52568 34.2091Z" fill="black"/>
<path d="M68.0875 35.5728C67.9774 35.6996 67.9554 37.391 67.9774 44.3152C67.9884 49.5902 68.0435 53.0575 68.1095 53.3006C68.1976 53.6284 68.2636 53.6918 68.4398 53.6495C68.5499 53.6072 68.748 53.5649 68.8581 53.5332C69.0453 53.4804 69.0783 53.3218 69.1444 52.2435C69.1884 51.5564 69.2324 47.5816 69.2435 43.3849C69.2545 36.2705 69.2435 35.7631 69.0673 35.5834C68.8251 35.3614 68.2857 35.3508 68.0875 35.5728Z" fill="black"/>
<path d="M1.3939 37.0844C1.08564 37.3804 1.08564 37.9724 1.40491 38.2578C1.53702 38.3741 1.70215 38.4692 1.77922 38.4692C2.01041 38.4692 2.4728 38.0147 2.53885 37.7187C2.68197 37.1478 1.82325 36.6721 1.3939 37.0844Z" fill="black"/>
<path d="M71.0379 36.9471C70.9168 37.074 70.9498 39.1882 71.0709 39.2622C71.137 39.3045 71.3902 39.3045 71.6324 39.2622L72.0728 39.1882L72.0397 38.0677L72.0067 36.9366L71.5663 36.9049C71.3131 36.8837 71.0819 36.9049 71.0379 36.9471Z" fill="black"/>
<path d="M6.41402 37.8562C6.25989 39.7378 6.392 40.8055 6.79934 41.0169C7.05255 41.1544 7.40485 41.0486 7.52595 40.8161C7.56999 40.7209 7.62503 39.8435 7.64705 38.8816L7.68008 37.1267L7.41586 37.0633C7.28375 37.021 7.00852 36.9893 6.82136 36.9893H6.48008L6.41402 37.8562Z" fill="black"/>
<path d="M65.6319 40.002C65.4888 40.15 65.4668 40.7526 65.4668 44.7168C65.4668 47.2116 65.4998 49.3364 65.5329 49.4104C65.6099 49.6112 66.3365 49.6218 66.6117 49.4315C66.7989 49.2941 66.8099 49.0721 66.7439 44.8014C66.7108 42.3383 66.6448 40.2135 66.6007 40.076C66.5457 39.8963 66.4466 39.8435 66.1714 39.8435C65.9622 39.8435 65.72 39.9175 65.6319 40.002Z" fill="black"/>
<path d="M71.0706 40.2665C71.0046 40.3934 70.9715 40.9642 70.9826 41.6513C71.0156 42.9833 71.1147 43.1524 71.6982 42.9516L72.0064 42.8564L72.0394 41.4505L72.0725 40.0551H71.6321C71.3018 40.0551 71.1587 40.1079 71.0706 40.2665Z" fill="black"/>
<path d="M1.40412 40.6574C1.43715 41.0274 1.45917 41.0591 1.76742 41.038C2.11972 41.0063 2.39495 40.742 2.35091 40.4777C2.32889 40.372 2.16375 40.3086 1.84449 40.2874L1.37109 40.2557L1.40412 40.6574Z" fill="black"/>
<path d="M3.5628 43.1205C2.78115 43.5222 2.27473 44.4207 2.26372 45.425C2.25271 47.1587 4.24537 48.2369 5.84169 47.3595C6.51325 46.9895 6.75546 46.7464 6.95362 46.2178C7.19582 45.5413 7.14078 44.7273 6.79949 44.0719C6.54628 43.5856 6.40316 43.4482 5.90775 43.1945C5.15913 42.8351 4.19032 42.8034 3.5628 43.1205ZM5.07105 44.3256C6.03986 44.7167 5.94078 46.091 4.91693 46.3236C4.57564 46.4081 3.99216 46.165 3.76096 45.8584C3.39766 45.3616 3.62885 44.5582 4.19032 44.3256C4.60867 44.1459 4.61968 44.1459 5.07105 44.3256Z" fill="black"/>
<path d="M63.3089 43.2052C63.1438 43.3637 63.2869 43.5435 63.5841 43.5435C63.9915 43.5435 64.0355 43.2686 63.6392 43.2052C63.4961 43.1735 63.3419 43.1735 63.3089 43.2052Z" fill="black"/>
<path d="M70.8832 45.1819C70.5199 45.5307 70.4979 45.5942 70.5419 46.091C70.619 46.7781 70.9713 47.1587 71.5438 47.1587C72.3585 47.1587 72.997 46.3024 72.7108 45.5836C72.3695 44.7168 71.5548 44.537 70.8832 45.1819Z" fill="black"/>
<path d="M63.1658 45.4673L63.1989 46.0276H63.6943C64.1677 46.0276 64.1897 46.017 64.2227 45.6893C64.2778 45.1396 64.0906 44.9176 63.5732 44.9176H63.1328L63.1658 45.4673Z" fill="black"/>
<path d="M63.2098 47.5183C63.0887 47.8143 63.1437 48.9982 63.2758 49.1251C63.3529 49.1991 63.5511 49.252 63.7162 49.252C64.0905 49.252 64.2446 48.956 64.2446 48.1948C64.2446 47.4549 64.1786 47.3491 63.6942 47.3491C63.419 47.3491 63.2538 47.402 63.2098 47.5183Z" fill="black"/>
<path d="M8.37296 49.7698C7.59131 50.1186 7.05186 50.6577 6.78764 51.366C6.56746 51.9368 6.55645 52.0848 6.65553 52.698C6.77664 53.4908 7.06287 53.9771 7.65737 54.4316C8.85737 55.3408 10.4097 55.2668 11.4115 54.2519C12.5344 53.1208 12.4023 51.3449 11.1363 50.2243C10.3876 49.5583 9.2537 49.3786 8.37296 49.7698ZM10.0904 51.1863C10.8941 51.6937 11.0482 52.7297 10.4097 53.4062C10.1454 53.6917 10.0353 53.7339 9.53994 53.7339C8.27388 53.7339 7.64636 52.5817 8.32893 51.514C8.70324 50.9114 9.45186 50.774 10.0904 51.1863Z" fill="black"/>
<path d="M62.4284 50.8376C61.7348 51.0491 60.8981 51.6305 60.4797 52.1908C59.4999 53.5439 59.7752 55.1295 61.2284 56.4615C61.7568 56.9478 63.199 57.4446 63.7274 57.3283C64.7513 57.1169 65.9843 56.1972 66.4027 55.3304C66.81 54.5164 66.777 53.4064 66.3366 52.5502C65.7531 51.4402 64.7843 50.8376 63.4742 50.7742C63.0779 50.7531 62.6155 50.7848 62.4284 50.8376ZM63.8155 52.1273C64.41 52.3176 64.7733 52.6347 65.0706 53.2056C65.4008 53.8293 65.4118 54.1253 65.1366 54.6961C64.7403 55.5524 63.7495 56.0598 62.9458 55.8272C61.944 55.5312 61.3825 54.8758 61.3825 53.9773C61.3825 53.0893 61.8779 52.4233 62.7586 52.1273C63.199 51.9793 63.3752 51.9793 63.8155 52.1273Z" fill="black"/>
<path d="M70.7512 51.0383C70.564 51.3555 70.6081 51.4718 70.9163 51.588C71.3897 51.7572 71.6429 51.6198 71.5989 51.2286C71.5659 50.9326 71.5218 50.8903 71.2136 50.8586C70.9604 50.8375 70.8393 50.8798 70.7512 51.0383Z" fill="black"/>
<path d="M17.1365 53.0996C16.9493 53.3111 16.8723 57.5818 16.9824 60.7215L17.0704 63.1528L17.5218 63.1845C17.9732 63.2163 17.9732 63.2057 18.0393 62.8146C18.0833 62.5926 18.1163 60.3303 18.1163 57.7932C18.1163 53.3322 18.1053 53.1631 17.9071 53.0574C17.6099 52.9094 17.2906 52.9199 17.1365 53.0996Z" fill="black"/>
<path d="M19.3165 54.1358C19.1183 54.4952 19.0192 67.7937 19.2174 68.0157C19.2945 68.1003 19.4926 68.1743 19.6688 68.1743C20.3293 68.1743 20.3183 68.2483 20.3183 60.8485C20.3183 55.7849 20.2853 54.1252 20.1862 54.0301C19.966 53.8186 19.4596 53.8821 19.3165 54.1358Z" fill="black"/>
<path d="M68.1641 54.9814C68.1421 55.1188 68.065 55.9117 67.999 56.7574C67.8448 58.7342 67.9879 59.2944 68.6485 59.2944C69.254 59.2944 69.3421 58.8927 69.243 56.8419C69.1769 55.4042 69.1439 55.2562 68.9127 55.0131C68.5934 54.6748 68.2301 54.6643 68.1641 54.9814Z" fill="black"/>
<path d="M21.3419 55.5417C21.2428 55.7954 21.3859 67.4342 21.496 67.8571C21.5731 68.1742 21.6391 68.2271 21.9364 68.2588C22.1896 68.2799 22.2997 68.2376 22.3437 68.1002C22.4979 67.6139 22.5859 64.0197 22.5419 59.897L22.4979 55.3831H21.9584C21.5621 55.3831 21.3969 55.4254 21.3419 55.5417Z" fill="black"/>
<path d="M13.8123 55.8059C12.7004 56.0068 12.3041 56.8102 12.7445 57.9519C12.9867 58.5544 14.2527 58.8716 14.9243 58.491C15.5298 58.1421 15.794 57.3282 15.5188 56.6622C15.2435 55.9856 14.594 55.6579 13.8123 55.8059ZM14.572 57.1696C14.6601 57.7299 14.0105 57.8779 13.7133 57.3599C13.5591 57.0745 13.5591 57.0533 13.8123 56.8525C14.0435 56.6727 14.0986 56.6622 14.3078 56.789C14.4399 56.8736 14.55 57.0427 14.572 57.1696Z" fill="black"/>
<path d="M23.8523 56.768L23.5881 56.8631L23.6211 61.4404C23.6432 63.9458 23.6211 66.3349 23.5661 66.7366C23.489 67.3497 23.511 67.5189 23.6762 67.8148C23.9184 68.2483 24.0505 68.2588 24.4028 67.8994C24.645 67.6457 24.667 67.54 24.678 66.504C24.678 65.8803 24.689 64.9183 24.711 64.3686C24.7331 63.8189 24.7331 61.8527 24.7331 60.0028L24.7221 56.6517L24.4248 56.6623C24.2487 56.6623 23.9954 56.7151 23.8523 56.768Z" fill="black"/>
<path d="M47.8852 57.1801C47.665 57.2647 47.665 57.2964 47.687 61.9055C47.7201 66.4934 47.7311 66.5356 47.9623 66.7153C48.2485 66.9479 48.3806 66.9479 48.7109 66.7259L48.9751 66.5568L48.8981 62.0006C48.854 59.4847 48.7659 57.3704 48.7109 57.2647C48.6008 57.0639 48.2705 57.0322 47.8852 57.1801Z" fill="black"/>
<path d="M56.0431 57.3282C55.6138 57.5185 55.1624 57.9836 54.9422 58.4699C54.7551 58.9139 54.8321 59.5164 55.1514 59.9816C55.5477 60.5524 56.7587 60.8484 57.4193 60.5313C57.5624 60.4573 57.8486 60.193 58.0468 59.9499C58.3551 59.5587 58.4101 59.4002 58.4101 58.935C58.4101 58.2162 57.9918 57.6136 57.3202 57.3494C56.7808 57.1485 56.4835 57.1379 56.0431 57.3282Z" fill="black"/>
<path d="M10.2887 57.6665C10.1896 57.7827 10.1786 57.9096 10.2557 58.0999C10.4208 58.5544 10.63 58.5227 10.63 58.0364C10.63 57.5607 10.5089 57.4233 10.2887 57.6665Z" fill="black"/>
<path d="M63.2103 57.7298C63.0892 57.8989 63.0342 58.2161 63.0342 58.7869C63.0342 59.4846 63.0672 59.6221 63.2434 59.7172C63.5736 59.8863 63.8929 59.844 64.025 59.6221C64.1461 59.4001 64.1791 57.9412 64.069 57.6664C63.97 57.4127 63.4085 57.455 63.2103 57.7298Z" fill="black"/>
<path d="M44.5714 57.9415C44.5273 58.0155 44.4503 59.7386 44.4062 61.7788C44.3292 65.2462 44.3402 65.4999 44.5273 65.743C44.8136 66.1236 45.0448 66.1236 45.4301 65.7536L45.7604 65.4259L45.7273 61.7683C45.6943 58.2904 45.6833 58.1106 45.4851 57.9626C45.2209 57.7829 44.6925 57.7724 44.5714 57.9415Z" fill="black"/>
<path d="M26.263 58.1846C26.1419 58.5017 26.1309 58.8611 26.23 59.432C26.285 59.7914 26.329 59.8337 26.5823 59.802C26.8685 59.7703 26.8685 59.7597 26.8685 58.8717C26.8685 58.0155 26.8575 57.9732 26.6263 57.9415C26.4391 57.9097 26.3401 57.9732 26.263 58.1846Z" fill="black"/>
<path d="M65.5768 58.0578C65.4887 58.1741 65.4337 59.2417 65.3897 61.7788C65.3456 64.8973 65.3566 65.373 65.5108 65.595C65.8631 66.1236 66.5787 65.7853 66.7108 65.0242C66.7878 64.5273 66.7768 59.6963 66.6777 58.7132L66.6117 57.9732L66.1603 57.9415C65.8741 57.9203 65.6649 57.9626 65.5768 58.0578Z" fill="black"/>
<path d="M28.4425 58.3114C28.3434 58.3325 28.2333 58.4277 28.2003 58.5228C28.0682 58.8505 27.9911 66.948 28.1232 67.244C28.2554 67.5717 28.6627 67.6457 28.9379 67.392C29.1361 67.2017 29.1911 65.8486 29.1801 61.4616V58.2903L28.9049 58.2691C28.7508 58.2691 28.5526 58.2797 28.4425 58.3114Z" fill="black"/>
<path d="M10.2232 59.5799C10.1461 59.601 10.0801 59.7702 10.0801 59.9393C10.0801 60.1719 10.1461 60.2564 10.3553 60.3093C10.8727 60.4361 11.203 59.8442 10.7516 59.6116C10.5204 59.4953 10.4324 59.4953 10.2232 59.5799Z" fill="black"/>
<path d="M31.0744 60.0451C30.5349 60.4468 30.4138 60.8168 30.3588 62.265L30.3037 63.6076L30.645 63.6816C30.8432 63.7133 31.0854 63.7239 31.2065 63.6816C31.4156 63.6182 31.4266 63.5019 31.4597 61.7999C31.4817 60.7957 31.4597 59.9394 31.4266 59.8971C31.3936 59.8548 31.2285 59.9182 31.0744 60.0451Z" fill="black"/>
<path d="M50.1751 60.637C49.8668 60.8801 49.7567 61.3981 49.9659 61.6624C50.076 61.7998 50.2631 61.8632 50.5934 61.8738C51.0118 61.8844 51.0998 61.8421 51.243 61.5884C51.4081 61.3241 51.4081 61.2712 51.1989 60.9012C50.9457 60.4467 50.5494 60.341 50.1751 60.637Z" fill="black"/>
<path d="M26.2521 60.8483C26.2301 60.9858 26.2852 61.5672 26.3182 61.5989C26.3292 61.62 26.4723 61.5989 26.6374 61.5566C26.8796 61.5037 26.9237 61.4297 26.9237 61.1338C26.9237 60.806 26.8907 60.7743 26.5934 60.7743C26.4173 60.7743 26.2631 60.806 26.2521 60.8483Z" fill="black"/>
<path d="M68.1747 60.8484C68.1307 60.8801 68.0977 61.0176 68.0977 61.155C68.0977 61.9901 68.8683 62.1698 69.1986 61.4193C69.4077 60.933 69.2866 60.7744 68.7252 60.7744C68.461 60.7744 68.2077 60.8061 68.1747 60.8484Z" fill="black"/>
<path d="M60.2813 61.2396C60.2152 61.3242 60.1712 61.5039 60.1932 61.6307C60.2373 61.9162 60.7327 62.2862 60.9639 62.2016C61.2171 62.1065 61.4152 61.673 61.3382 61.3665C61.2831 61.1339 61.2061 61.0916 60.8428 61.0916C60.6116 61.0916 60.3584 61.155 60.2813 61.2396Z" fill="black"/>
<path d="M35.9294 61.8949C35.1257 62.3072 35.2688 63.174 36.2046 63.5123C36.6339 63.6708 36.656 63.6603 37.0413 63.3537C37.3165 63.1317 37.3826 63.0049 37.3826 62.6666C37.3826 61.8843 36.667 61.5038 35.9294 61.8949Z" fill="black"/>
<path d="M14.549 62.9415C14.4389 63.2269 14.4719 63.3009 14.7472 63.4701C15.1215 63.7132 15.4958 63.5229 15.4518 63.1212C15.4187 62.8781 15.3637 62.8358 15.0224 62.8041C14.7362 62.7829 14.6041 62.8147 14.549 62.9415Z" fill="black"/>
<path d="M25.0081 63.9141C24.92 64.5167 25.1072 64.8232 25.6576 65.0029C25.9989 65.1087 26.087 65.1087 26.2741 64.9395C26.3842 64.8444 26.5384 64.5801 26.6154 64.3581C26.7145 64.0198 26.7035 63.9141 26.5494 63.6815C26.3842 63.449 26.2962 63.4173 25.7237 63.4173H25.0852L25.0081 63.9141Z" fill="black"/>
<path d="M39.7495 63.6709C39.2871 63.8612 38.8467 64.3897 38.6926 64.9289C38.5825 65.3411 38.5935 65.4257 38.8797 65.9543C39.155 66.4511 39.2981 66.578 39.8265 66.8317C40.5641 67.1911 41.1476 67.1594 41.6871 66.726C42.4797 66.0811 42.6449 65.0874 42.0834 64.2735C41.61 63.5863 40.5752 63.322 39.7495 63.6709ZM41.0375 64.7597C41.3458 65.024 41.3018 65.5737 40.9495 65.838C40.7843 65.9648 40.5972 66.06 40.5201 66.06C40.443 66.06 40.2559 65.9648 40.0908 65.838C39.7495 65.5843 39.7054 65.0769 39.9917 64.7703C40.2119 64.5377 40.7623 64.5272 41.0375 64.7597Z" fill="black"/>
<path d="M16.9608 64.2947C16.9168 64.4215 16.9498 64.6646 17.0049 64.8232C17.159 65.2143 17.6985 65.2249 17.9627 64.8444C18.1278 64.6012 18.1278 64.5589 17.9627 64.3158C17.7095 63.9458 17.0489 63.9352 16.9608 64.2947Z" fill="black"/>
<path d="M60.5461 64.4638C60.2269 64.5907 59.7314 65.1827 59.7314 65.4364C59.7314 65.9966 60.2819 66.4829 60.8984 66.4829C61.3388 66.4829 61.9333 65.8592 61.9333 65.4047C61.9333 64.781 61.1186 64.2418 60.5461 64.4638Z" fill="black"/>
<path d="M31.6687 65.8063C31.2174 66.356 31.4706 66.948 32.1421 66.948C32.6265 66.948 32.7476 66.8423 32.8247 66.356C32.9568 65.6266 32.1311 65.246 31.6687 65.8063Z" fill="black"/>
<path d="M27.2215 68.8931C26.9682 69.1679 26.9903 69.3582 27.3095 69.6542C27.5517 69.8762 27.6068 69.8868 27.86 69.7599C28.2013 69.5908 28.3334 69.1679 28.1242 68.9671C27.849 68.7028 27.4306 68.6711 27.2215 68.8931Z" fill="black"/>
<path d="M34.7403 78.6503C32.2192 78.7349 31.8779 78.7877 31.8779 79.1048C31.8779 79.274 31.988 79.3586 32.3513 79.4643C32.6045 79.5488 32.9788 79.6863 33.177 79.7708C33.4412 79.8871 33.9807 79.94 35.2137 79.9717C37.999 80.0245 38.8577 80.0034 38.9238 79.9083C38.9568 79.8554 39.7385 79.8237 40.6632 79.8343C41.8082 79.8554 42.3476 79.8237 42.3807 79.7497C42.4027 79.6863 42.7109 79.6123 43.0632 79.6017C43.4155 79.5911 43.7458 79.5488 43.7898 79.5277C43.8449 79.496 43.955 79.5277 44.0431 79.5911C44.1752 79.6968 44.2082 79.6863 44.2082 79.496C44.2082 79.3797 44.2632 79.274 44.3183 79.274C44.4504 79.274 44.4724 78.9674 44.3513 78.9357C43.1843 78.7031 37.988 78.5551 34.7403 78.6503Z" fill="black"/>
<path d="M31.4375 79.1047C31.4375 79.3584 31.5696 79.5381 31.6797 79.4218C31.7678 79.3478 31.6467 78.851 31.5366 78.851C31.4815 78.851 31.4375 78.9673 31.4375 79.1047Z" fill="black"/>
<path d="M44.9565 79.0309C44.6703 79.0943 44.7143 79.2741 45.0116 79.2741C45.1437 79.2741 45.3639 79.3058 45.507 79.3375C45.7052 79.3903 45.7492 79.3586 45.7492 79.1789C45.7492 78.9992 45.6831 78.9569 45.4519 78.9675C45.2758 78.9781 45.0556 78.9992 44.9565 79.0309Z" fill="black"/>
</svg>
